<svg width="313" height="122" viewBox="0 0 313 122" fill="none" xmlns="http://www.w3.org/2000/svg">
<path d="M113.749 92.5875H96.3361L92.1557 108.304H109.6L113.749 92.5875Z" fill="#FFC324"/>
<path d="M89.8596 108.304L95.8583 85.7433H45.7824L39.7837 108.304H89.8596Z" fill="#29A829"/>
<path d="M97.4542 89.5141L114.868 89.5141L119.048 73.7981L101.603 73.7981L97.4542 89.5141Z" fill="#FFC324"/>
<path d="M121.344 73.7981L115.345 96.3583L165.421 96.3583L171.42 73.7981L121.344 73.7981Z" fill="#29A829"/>
<path d="M110.662 114.498L128.076 114.498L132.256 98.7819L114.811 98.7819L110.662 114.498Z" fill="#FFC324"/>
<path d="M134.552 98.782L128.553 121.342L178.629 121.342L184.628 98.782L134.552 98.782Z" fill="#29A829"/>
<path d="M100.594 67.6445H83.1805L79 83.3606H96.4448L100.594 67.6445Z" fill="#FFC324"/>
<path d="M76.704 83.3606L82.7027 60.8003L32.6268 60.8003L26.6281 83.3606H76.704Z" fill="#29A829"/>
<path d="M87.1214 43.3257H69.708L65.5276 59.0418H82.9724L87.1214 43.3257Z" fill="#FFC324"/>
<path d="M63.2316 59.0418L69.2302 36.4815H19.1543L13.1557 59.0418H63.2316Z" fill="#29A829"/>
<path d="M70.8261 40.2524L88.2395 40.2524L92.4199 24.5364L74.9751 24.5363L70.8261 40.2524Z" fill="#FFC324"/>
<path d="M94.7159 24.5363L88.7173 47.0966L138.793 47.0966L144.792 24.5364L94.7159 24.5363Z" fill="#29A829"/>
<path d="M84.0342 65.2362L101.448 65.2363L105.628 49.5202L88.1833 49.5202L84.0342 65.2362Z" fill="#FFC324"/>
<path d="M107.924 49.5202L101.925 72.0804L152.001 72.0804L158 49.5202L107.924 49.5202Z" fill="#29A829"/>
<path d="M73.9658 18.3828L56.5524 18.3828L52.3719 34.0988H69.8167L73.9658 18.3828Z" fill="#FFC324"/>
<path d="M50.0759 34.0988L56.0746 11.5386L5.99868 11.5386L0 34.0988L50.0759 34.0988Z" fill="#29A829"/>
<path d="M241.528 81.0489H224.114L219.934 96.7649H237.379L241.528 81.0489Z" fill="#FFC324"/>
<path d="M217.638 96.7649L223.636 74.2047H173.561L167.562 96.7649H217.638Z" fill="#29A829"/>
<path d="M225.232 77.9756L242.646 77.9756L246.826 62.2595L229.381 62.2595L225.232 77.9756Z" fill="#FFC324"/>
<path d="M249.122 62.2595L243.123 84.8198L293.199 84.8198L299.198 62.2595L249.122 62.2595Z" fill="#29A829"/>
<path d="M238.44 102.959L255.854 102.959L260.034 87.2434L242.589 87.2434L238.44 102.959Z" fill="#FFC324"/>
<path d="M262.33 87.2434L256.332 109.804L306.408 109.804L312.406 87.2434L262.33 87.2434Z" fill="#29A829"/>
<path d="M228.372 56.1059H210.959L206.778 71.822H224.223L228.372 56.1059Z" fill="#FFC324"/>
<path d="M204.482 71.822L210.481 49.2617L160.405 49.2617L154.406 71.822H204.482Z" fill="#29A829"/>
<path d="M214.9 31.7871H197.486L193.306 47.5032H210.751L214.9 31.7871Z" fill="#FFC324"/>
<path d="M191.01 47.5032L197.008 24.9429H146.932L140.934 47.5032H191.01Z" fill="#29A829"/>
<path d="M198.604 28.7138L216.018 28.7138L220.198 12.9978L202.753 12.9978L198.604 28.7138Z" fill="#FFC324"/>
<path d="M222.494 12.9978L216.495 35.558L266.571 35.558L272.57 12.9978L222.494 12.9978Z" fill="#29A829"/>
<path d="M211.812 53.6977L229.226 53.6977L233.406 37.9816L215.961 37.9816L211.812 53.6977Z" fill="#FFC324"/>
<path d="M235.702 37.9816L229.704 60.5419L279.779 60.5419L285.778 37.9816L235.702 37.9816Z" fill="#29A829"/>
<path d="M201.744 6.84419L184.331 6.84419L180.15 22.5602H197.595L201.744 6.84419Z" fill="#FFC324"/>
<path d="M177.854 22.5602L183.853 0L133.777 0L127.778 22.5602L177.854 22.5602Z" fill="#29A829"/>
</svg>
